<svg id="图层_1" data-name="图层 1" xmlns="http://www.w3.org/2000/svg" viewBox="0 0 200 200"><defs><style>.cls-1{fill:#040000;}</style></defs><title>10.31</title><path class="cls-1" d="M100,176A76,76,0,1,1,154.84,47.37c1.62,1.68,7.89,8.47,9.55,10.59a3.62,3.62,0,0,1-5.7,4.46q-4.4-5.13-9.06-10A68.78,68.78,0,1,0,168.77,100a3.62,3.62,0,1,1,7.24,0A76.1,76.1,0,0,1,100,176Z"/><path class="cls-1" d="M160.27,67.42H132.58a3.62,3.62,0,0,1,0-7.24h27.69a1.28,1.28,0,0,0,1.27-1.26V31.23a3.62,3.62,0,0,1,7.24,0v27.7A8.52,8.52,0,0,1,160.27,67.42Z"/></svg>