<svg id="图层_1" data-name="图层 1" xmlns="http://www.w3.org/2000/svg" viewBox="0 0 200 200"><defs><style>.cls-1{fill:#040000;}</style></defs><title>1</title><path class="cls-1" d="M146.75,40.89a3.71,3.71,0,0,0,3.71-3.71V33.48a62.17,62.17,0,0,1-6.34,80.68,3.71,3.71,0,0,0,0,5.24l0,0a3.71,3.71,0,0,0,5.24,0l0,0A69.66,69.66,0,0,0,154.9,27h5.75a3.71,3.71,0,0,0,0-7.41h-13.9A3.71,3.71,0,0,0,143,23.28v13.9a3.71,3.71,0,0,0,3.71,3.71ZM57.06,116.82v-14a3.71,3.71,0,0,0-7.41,0v3.71A62.17,62.17,0,0,1,56,25.8a3.72,3.72,0,1,0-5.26-5.26h0a69.66,69.66,0,0,0-5.52,92.58H39.45a3.71,3.71,0,1,0,0,7.41H53.36A3.71,3.71,0,0,0,57.06,116.82Z"/><path class="cls-1" d="M148.23,129.95a13.16,13.16,0,0,0-5.89,1.41A13.35,13.35,0,0,0,129,118.45a13.12,13.12,0,0,0-5.89,1.37v-8.38a47.38,47.38,0,1,0-45.86,0v32.77a13.61,13.61,0,0,0-16.46-4.93,13.2,13.2,0,0,0-6.55,17.48q.25.54.54,1.06l10.71,18.54a8.34,8.34,0,0,0,7.23,4.19H153.2a8.34,8.34,0,0,0,8.16-8.12V143.26A13.31,13.31,0,0,0,148.23,129.95ZM60.07,70a40,40,0,1,1,63,32.74V70.4a13.31,13.31,0,1,0-26.62,0h0V77.6a13.16,13.16,0,0,0-5.93-1.37A13.31,13.31,0,0,0,77.23,89.53h0V102.7A39.63,39.63,0,0,1,60.07,70Zm93.87,102.44a.93.93,0,0,1-.93.93H72.56a.85.85,0,0,1-.78-.48L61,154.34a5.71,5.71,0,0,1-.48-4.67,5.6,5.6,0,0,1,3.11-3.49,5.45,5.45,0,0,1,2.15-.44,6.41,6.41,0,0,1,5.45,3.3l6.3,10.9a3.71,3.71,0,0,0,6.93-1.85V89.53a5.93,5.93,0,0,1,11.83,0v58.24a3.71,3.71,0,1,0,7.41,0h0V70.4a5.89,5.89,0,1,1,11.79,0h0v61.25a3.71,3.71,0,1,0,7.42,0,5.89,5.89,0,1,1,11.79,0h0v11.49a3.71,3.71,0,1,0,7.41,0h0a5.89,5.89,0,0,1,11.79,0h0Z"/></svg>