<?xml version="1.0" standalone="no"?><!DOCTYPE svg PUBLIC "-//W3C//DTD SVG 1.1//EN" "http://www.w3.org/Graphics/SVG/1.1/DTD/svg11.dtd"><svg t="1541070717449" class="icon" style="" viewBox="0 0 1024 1024" version="1.1" xmlns="http://www.w3.org/2000/svg" p-id="3383" xmlns:xlink="http://www.w3.org/1999/xlink" width="200" height="200"><defs><style type="text/css"></style></defs><path d="M912 325.3v373.3c0 14.7-5.2 27.3-15.6 37.7-10.4 10.4-22.9 15.6-37.7 15.6H165.2c-14.7 0-27.3-5.2-37.7-15.6-10.4-10.4-15.6-22.9-15.6-37.7V325.3c0-14.7 5.2-27.3 15.6-37.7s22.9-15.6 37.7-15.6h693.4c14.7 0 27.3 5.2 37.7 15.6 10.4 10.5 15.7 23 15.7 37.7z m-53.3 373.4V325.3H165.2v373.3l693.5 0.1zM271.9 385.2v40c0 4.4-2.2 6.7-6.7 6.7h-40c-4.4 0-6.7-2.2-6.7-6.7v-40c0-4.4 2.2-6.7 6.7-6.7h40c4.5 0.1 6.7 2.4 6.7 6.7z m53.4 106.7v40c0 4.4-2.2 6.7-6.7 6.7h-93.3c-4.4 0-6.7-2.2-6.7-6.7v-40c0-4.4 2.2-6.7 6.7-6.7h93.3c4.4 0 6.7 2.4 6.7 6.7z m-53.4 106.8v40c0 4.4-2.2 6.7-6.7 6.7h-40c-4.4 0-6.7-2.2-6.7-6.7v-40c0-4.4 2.2-6.7 6.7-6.7h40c4.5 0 6.7 2.2 6.7 6.7z m106.8-213.5v40c0 4.4-2.2 6.7-6.7 6.7h-40c-4.4 0-6.7-2.2-6.7-6.7v-40c0-4.4 2.2-6.7 6.7-6.7h40c4.3 0.1 6.7 2.4 6.7 6.7z m320 213.5v40c0 4.4-2.2 6.7-6.7 6.7H331.9c-4.4 0-6.7-2.2-6.7-6.7v-40c0-4.4 2.2-6.7 6.7-6.7h360c4.5 0 6.8 2.2 6.8 6.7zM431.9 491.9v40c0 4.4-2.2 6.7-6.7 6.7h-40c-4.4 0-6.7-2.2-6.7-6.7v-40c0-4.4 2.2-6.7 6.7-6.7h40c4.6 0 6.7 2.4 6.7 6.7z m53.4-106.7v40c0 4.4-2.2 6.7-6.7 6.7h-40c-4.4 0-6.7-2.2-6.7-6.7v-40c0-4.4 2.2-6.7 6.7-6.7h40c4.4 0.1 6.7 2.4 6.7 6.7z m53.3 106.7v40c0 4.4-2.2 6.7-6.7 6.7h-40c-4.4 0-6.7-2.2-6.7-6.7v-40c0-4.4 2.2-6.7 6.7-6.7h40c4.5 0 6.7 2.4 6.7 6.7zM592 385.2v40c0 4.4-2.2 6.7-6.7 6.7h-40c-4.4 0-6.7-2.2-6.7-6.7v-40c0-4.4 2.2-6.7 6.7-6.7h40c4.5 0.1 6.7 2.4 6.7 6.7z m53.3 106.7v40c0 4.4-2.2 6.7-6.7 6.7h-40c-4.4 0-6.7-2.2-6.7-6.7v-40c0-4.4 2.2-6.7 6.7-6.7h40c4.5 0 6.7 2.4 6.7 6.7z m53.4-106.7v40c0 4.4-2.2 6.7-6.7 6.7h-40c-4.4 0-6.7-2.2-6.7-6.7v-40c0-4.4 2.2-6.7 6.7-6.7h40c4.4 0.1 6.7 2.4 6.7 6.7z m106.5 0v146.7c0 4.4-2.2 6.7-6.7 6.7h-93.3c-4.4 0-6.7-2.2-6.7-6.7v-40c0-4.4 2.2-6.7 6.7-6.7h46.7V385.1c0-4.4 2.2-6.7 6.7-6.7h40c4.5 0.2 6.6 2.5 6.6 6.8z m0 213.5v40c0 4.4-2.2 6.7-6.7 6.7h-40c-4.4 0-6.7-2.2-6.7-6.7v-40c0-4.4 2.2-6.7 6.7-6.7h40c4.6 0 6.7 2.2 6.7 6.7z" p-id="3384"></path></svg>