<svg id="图层_1" data-name="图层 1" xmlns="http://www.w3.org/2000/svg" viewBox="0 0 200 200"><defs><style>.cls-1{fill:#040000;}</style></defs><title>1</title><path class="cls-1" d="M110.94,39.07h-6.05V32.63a8.8,8.8,0,0,1,8.79-8.79,4.88,4.88,0,0,0,0-9.77A18.58,18.58,0,0,0,95.12,32.63v6.45H89.06A39.06,39.06,0,0,0,50,78.13v60.94a50,50,0,1,0,100,0V78.13A39.06,39.06,0,0,0,110.94,39.07Zm29.3,100a40.23,40.23,0,1,1-80.47,0V78.13a29.3,29.3,0,0,1,29.3-29.3h21.87a29.3,29.3,0,0,1,29.3,29.3Z"/><path d="M100,103.53a14.65,14.65,0,0,0,14.65-14.65V79.11a14.65,14.65,0,1,0-29.3,0v9.77A14.65,14.65,0,0,0,100,103.53ZM95.12,79.11a4.88,4.88,0,1,1,9.77,0v9.77a4.88,4.88,0,1,1-9.77,0Zm30.05,66.7a4.88,4.88,0,0,0-6.52,2.27,20.71,20.71,0,0,1-37.3,0,4.88,4.88,0,1,0-8.79,4.25,30.48,30.48,0,0,0,54.88,0A4.88,4.88,0,0,0,125.17,145.81Z"/></svg>